{"title":"Deathstalker 1 (1983)","uid":5434952,"size":733929519,"categoryP":"video","categoryS":"movies","magnet":"?xt=urn:btih:33ccb0f5ea96d72b44851ad7e2020b668f27b3be&amp;dn=Deathstalker+1+%281983%29&amp;tr=udp%3A%2F%2Ftracker.openbittorrent.com%3A80&amp;tr=udp%3A%2F%2Fopen.demonii.com%3A1337&amp;tr=udp%3A%2F%2Ftracker.coppersurfer.tk%3A6969&amp;tr=udp%3A%2F%2Fexodus.desync.com%3A6969","seeders":1,"leechers":0,"uploader":"FieroRumor","files":-1,"time":1268562271,"description":"The warrior Deathstalker is tasked by an old witch lady to obtain and unite the three powers of creation - a chalice, an amulet, and a sword - lest the evil magician Munkar get them and use them for nefarious purposes. After obtaining the sword, Deathstalker joins with other travellers going to the Big Tournament to determine the strongest warrior. The false king holds the true princess in captivity, and plots to have Deathstalker killed, and Deathstalker must fight to free the princess.\n\n\nFormat                           : AVI\nFormat/Info                      : Audio Video Interleave\nFile size                        : 700 MiB\nDuration                         : 1h 16mn\nOverall bit rate                 : 1 278 Kbps\n\n\nVideo\nID                               : 0\nFormat                           : MPEG-4 Visual\nFormat profile                   : Simple@L0\nFormat settings, BVOP            : No\nFormat settings, QPel            : No\nFormat settings, GMC             : No warppoints\nFormat settings, Matrix          : Default (H.263)\nCodec ID                         : XVID\nCodec ID/Hint                    : XviD\nDuration                         : 1h 16mn\nBit rate                         : 1 145 Kbps\nWidth                            : 576 pixels\nHeight                           : 432 pixels\nDisplay aspect ratio             : 4:3\nFrame rate                       : 25.000 fps\nResolution                       : 8 bits\nColorimetry                      : 4:2:0\nScan type                        : Progressive\nBits/(Pixel*Frame)               : 0.184\nStream size                      : 627 MiB (90%)\nWriting library                  : XviD 1.0.3 (UTC 2004-12-20)\n\nAudio\nID                               : 1\nFormat                           : MPEG Audio\nFormat version                   : Version 1\nFormat profile                   : Layer 3\nFormat_Settings_Mode             : Dual mono\nCodec ID                         : 55\nCodec ID/Hint                    : MP3\nDuration                         : 1h 16mn\nBit rate mode                    : Variable\nBit rate                         : 120 Kbps\nNominal bit rate                 : 128 Kbps\nChannel(s)                       : 2 channels\nSampling rate                    : 48.0 KHz\nStream size                      : 65.9 MiB (9%)\nAlignment                        : Aligned on interleaves\nInterleave, duration             : 24 ms (0.60 video frame)\nInterleave, preload duration     : 531 ms\nWriting library                  : LAME3.96r\nEncoding settings                : -m d -V 4 -q 3 -lowpass 17.5 --abr 128\n","torrent":{"xt":"urn:btih:33ccb0f5ea96d72b44851ad7e2020b668f27b3be","amp;dn":"Deathstalker+1+%281983%29","amp;tr":["udp%3A%2F%2Ftracker.openbittorrent.com%3A80","udp%3A%2F%2Fopen.demonii.com%3A1337","udp%3A%2F%2Ftracker.coppersurfer.tk%3A6969","udp%3A%2F%2Fexodus.desync.com%3A6969"],"infoHash":"33ccb0f5ea96d72b44851ad7e2020b668f27b3be","infoHashBuffer":{"type":"Buffer","data":[51,204,176,245,234,150,215,43,68,133,26,215,226,2,11,102,143,39,179,190]},"announce":[],"urlList":[]}}